<svg width="305" height="95" viewBox="0 0 305 95" fill="none" xmlns="http://www.w3.org/2000/svg">
<path d="M63.4785 0L97.4546 1.10428L63.4785 33.599V0ZM61.0104 1.81419V35.2948H29.4252C40.196 24.378 50.5247 13.0319 61.0104 1.81419ZM95.642 6.34918L100 7.84775L84.2654 17.1938L95.642 6.34918ZM10.4126 10.0562H17.3159L33.3976 27.6443L25.9159 35.2948H10.4126C10.4137 26.8764 10.4126 18.4702 10.4126 10.0562ZM7.94437 11.5942V18.8897H0L7.94437 11.5942ZM12.1481 37.8187H60.4319L46.9725 74.612L12.1481 37.8187ZM61.0104 43.4972V95.0001L45.2756 86.4033C50.5221 72.0995 55.7614 57.8045 61.0104 43.4972V43.4972Z" fill="#448CBE"/>
<path d="M98.3152 43.4239C106.033 43.4239 111.739 49.4022 111.739 57.3913C111.739 65.3804 106.033 71.3044 98.3152 71.3044C95.7065 71.3044 92.7174 70.3261 90.5978 68.75V70.7609H85V30H90.5978V46.0326C92.3913 44.5652 95.7065 43.4239 98.3152 43.4239V43.4239ZM97.7717 66.7391C102.391 66.7391 106.141 62.8261 106.141 57.3913C106.141 51.9022 102.391 48.0435 97.7717 48.0435C94.7283 48.0435 92.0652 49.4022 90.5978 52.2826C89.837 53.8043 89.4022 55.5435 89.4022 57.3913C89.4022 59.2391 89.837 60.9783 90.5978 62.4457C92.0652 65.3261 94.7283 66.7391 97.7717 66.7391V66.7391ZM128.641 43.3696C136.359 43.3696 139.457 48.0435 139.457 52.0109V70.7609H133.859V67.8261C131.902 70.4891 128.424 71.25 126.25 71.25C120.109 71.25 116.087 67.663 116.087 62.8804C116.087 56.1957 121.087 53.8044 126.25 53.8044H133.859V52.0109C133.859 50.3261 133.207 47.9891 128.641 47.9891C126.087 47.9891 123.75 49.3478 122.228 51.4674L118.37 47.9891C120.924 45.163 124.565 43.3696 128.641 43.3696V43.3696ZM133.859 62.3913V58.3696H127.011C123.696 58.3696 121.359 60.0544 121.739 63.0978C122.065 65.6522 124.13 66.6848 127.011 66.6848C132.174 66.6848 133.859 64.2391 133.859 62.3913ZM171.033 55.2717V70.7609H165.435V55.8152C165.435 50.3804 163.75 47.9891 159.13 47.9891C153.913 47.9891 151.793 51.6304 151.793 56.3587V70.7609H146.196V43.913H151.793V48.2609C152.554 45.8696 155.924 43.6957 159.13 43.4783C166.413 42.9348 171.033 46.4674 171.033 55.2717V55.2717ZM197.772 70.7609L187.609 57.7717L184.674 60.2717V70.7609H179.022V30H184.674V53.3152L195.489 43.913H204.185L191.685 54.3478L205 70.7609H197.772ZM225.978 30L242.717 70.7609H236.196L232.12 60.1087H216.087L212.065 70.7609H205.543L222.283 30H225.978ZM217.989 55.1087H230.217L224.13 39.0217L217.989 55.1087ZM272.772 57.3913C272.772 65.3804 267.011 71.3044 259.293 71.3044C256.685 71.3044 253.37 70.2174 251.576 68.75V84.6196H245.978V43.913H251.576V46.0326C253.696 44.4022 256.685 43.4239 259.293 43.4239C267.011 43.4239 272.772 49.4022 272.772 57.3913V57.3913ZM267.12 57.3913C267.12 51.9022 263.37 48.0435 258.75 48.0435C255.707 48.0435 253.043 49.4022 251.576 52.337C250.87 53.8044 250.435 55.5435 250.435 57.3913C250.435 59.2391 250.87 60.9783 251.576 62.4457C253.043 65.3261 255.707 66.7391 258.75 66.7391C263.37 66.7391 267.12 62.8261 267.12 57.3913V57.3913ZM305 57.3913C305 65.3804 299.239 71.3044 291.522 71.3044C288.913 71.3044 285.598 70.2174 283.804 68.75V84.6196H278.207V43.913H283.804V46.0326C285.924 44.4022 288.913 43.4239 291.522 43.4239C299.239 43.4239 305 49.4022 305 57.3913V57.3913ZM299.348 57.3913C299.348 51.9022 295.598 48.0435 290.978 48.0435C287.935 48.0435 285.272 49.4022 283.804 52.337C283.098 53.8044 282.663 55.5435 282.663 57.3913C282.663 59.2391 283.098 60.9783 283.804 62.4457C285.272 65.3261 287.935 66.7391 290.978 66.7391C295.598 66.7391 299.348 62.8261 299.348 57.3913V57.3913Z" fill="#D72364"/>
</svg>
