<svg width="100" height="95" viewBox="0 0 100 95" fill="none" xmlns="http://www.w3.org/2000/svg">
<path d="M87.3918 18L100 48H95.0877L92.0175 40.16H79.9415L78.4269 44.08L76.9123 48H74.4561H72L75.152 40.5L78.3041 33L84.6082 18H87.3918ZM81.3743 36.48H90.5848L86 24.64L81.3743 36.48Z" fill="#D72364"/>
<path d="M81.9268 56.0732C92.3171 56.0732 100 64.122 100 74.8781C100 85.6342 92.3171 93.6098 81.9268 93.6098C78.4146 93.6098 74.3902 92.2927 71.5366 90.1707V92.8781H64V38H71.5366V59.5854C73.9512 57.6098 78.4146 56.0732 81.9268 56.0732ZM81.1951 87.4634C87.4146 87.4634 92.4634 82.1951 92.4634 74.8781C92.4634 67.4878 87.4146 62.2927 81.1951 62.2927C77.0976 62.2927 73.5122 64.122 71.5366 68C70.5122 70.0488 69.9268 72.3902 69.9268 74.8781C69.9268 77.3659 70.5122 79.7073 71.5366 81.6829C73.5122 85.561 77.0976 87.4634 81.1951 87.4634Z" fill="#D72364"/>
<path d="M63.4785 0L97.4546 1.10428L63.4785 33.599V0ZM61.0104 1.81419V35.2948H29.4252C40.196 24.378 50.5247 13.0319 61.0104 1.81419ZM95.642 6.34918L100 7.84775L84.2654 17.1938L95.642 6.34918ZM10.4126 10.0562H17.3159L33.3976 27.6443L25.9159 35.2948H10.4126C10.4137 26.8764 10.4126 18.4702 10.4126 10.0562ZM7.94437 11.5942V18.8897H0L7.94437 11.5942ZM12.1481 37.8187H60.4319L46.9725 74.612L12.1481 37.8187ZM61.0104 43.4972V95.0001L45.2756 86.4033C50.5221 72.0995 55.7614 57.8045 61.0104 43.4972V43.4972Z" fill="#448CBE"/>
</svg>
