<svg width="1184" height="544" viewBox="0 0 1184 544" fill="none" xmlns="http://www.w3.org/2000/svg">
<path d="M0 0H1184V544H0V0ZM20.3262 20.3364V523.664H1163.67V20.3364H20.3262Z" fill="#FFF"/>
<path d="M253.094 110.574V193.205H200.711V132.762H123.475L138.769 144.621V193.205L253.094 333.6V394.043V435.358C253.094 455.633 236.653 473.231 215.24 473.231H124.24C102.829 473.231 86.3862 455.635 86.3862 435.358V350.049H138.769V412.787H200.711V352.344L86.3862 211.949V110.573C86.3862 89.1503 102.827 72.6998 124.24 72.6998H215.24C236.652 72.6998 253.094 89.1489 253.094 110.573V110.574ZM332.247 352.731H386.16L359.395 133.141L332.247 352.731ZM264.571 473.616L312.364 84.5562L302.805 73.0797H404.894L454.218 473.614H401.07L393.806 413.171L309.305 412.789L323.452 423.883L317.334 473.614H264.569L264.571 473.616ZM525.337 472.086H472.573V83.4123L463.014 71.5532H525.338V472.088L525.337 472.086ZM609.456 241.415H671.015V131.623H593.779L609.456 143.483V241.415V241.415ZM723.404 109.43V263.978C723.404 285.4 706.963 301.851 685.55 301.851H678.285L723.403 472.08H669.109L623.99 301.851H593.784L609.461 313.71V472.092H556.697V131.62V83.0368L547.138 71.1777L685.55 71.5603C706.962 71.5603 723.404 88.0095 723.404 109.433L723.404 109.43ZM796.428 412.79H858.37V133.153H781.134L796.428 145.012V412.803V412.79ZM910.747 110.574V435.366C910.747 456.788 894.307 473.239 872.894 473.239H781.893C760.482 473.239 744.039 456.79 744.039 435.366V110.574C744.039 90.2995 760.48 72.7015 781.893 72.7015H872.894C894.305 72.7015 910.747 90.2981 910.747 110.574V110.574ZM918.018 72.7029H979.195L1014.75 360.381L1049.93 72.7029H1102.7L1053.75 473.237H975.37L927.958 84.5637H927.575L918.018 72.7029Z" fill="#FFF"/>
</svg>
