<svg width="220" height="162" viewBox="0 0 220 162" fill="none" xmlns="http://www.w3.org/2000/svg">
<path d="M123.478 0L157.455 1.10428L123.478 33.599V0ZM121.01 1.81419V35.2948H89.4252C100.196 24.378 110.525 13.0319 121.01 1.81419ZM155.642 6.34918L160 7.84775L144.265 17.1938L155.642 6.34918ZM70.4126 10.0562H77.3159L93.3976 27.6443L85.9159 35.2948H70.4126C70.4137 26.8764 70.4126 18.4702 70.4126 10.0562ZM67.9444 11.5942V18.8897H60L67.9444 11.5942ZM72.1481 37.8187H120.432L106.972 74.612L72.1481 37.8187ZM121.01 43.4972V95.0001L105.276 86.4033C110.522 72.0995 115.761 57.8045 121.01 43.4972V43.4972Z" fill="#448CBE"/>
<path d="M13.3152 120.424C21.0326 120.424 26.7391 126.402 26.7391 134.391C26.7391 142.38 21.0326 148.304 13.3152 148.304C10.7065 148.304 7.71739 147.326 5.59783 145.75V147.761H0V107H5.59783V123.033C7.3913 121.565 10.7065 120.424 13.3152 120.424V120.424ZM12.7717 143.739C17.3913 143.739 21.1413 139.826 21.1413 134.391C21.1413 128.902 17.3913 125.043 12.7717 125.043C9.72826 125.043 7.06522 126.402 5.59783 129.283C4.83696 130.804 4.40217 132.543 4.40217 134.391C4.40217 136.239 4.83696 137.978 5.59783 139.446C7.06522 142.326 9.72826 143.739 12.7717 143.739V143.739ZM43.6413 120.37C51.3587 120.37 54.4565 125.043 54.4565 129.011V147.761H48.8587V144.826C46.9022 147.489 43.4239 148.25 41.25 148.25C35.1087 148.25 31.087 144.663 31.087 139.88C31.087 133.196 36.087 130.804 41.25 130.804H48.8587V129.011C48.8587 127.326 48.2065 124.989 43.6413 124.989C41.087 124.989 38.75 126.348 37.2283 128.467L33.3696 124.989C35.9239 122.163 39.5652 120.37 43.6413 120.37V120.37ZM48.8587 139.391V135.37H42.0109C38.6956 135.37 36.3587 137.054 36.7391 140.098C37.0652 142.652 39.1304 143.685 42.0109 143.685C47.1739 143.685 48.8587 141.239 48.8587 139.391ZM86.0326 132.272V147.761H80.4348V132.815C80.4348 127.38 78.75 124.989 74.1304 124.989C68.913 124.989 66.7935 128.63 66.7935 133.359V147.761H61.1957V120.913H66.7935V125.261C67.5543 122.87 70.9239 120.696 74.1304 120.478C81.413 119.935 86.0326 123.467 86.0326 132.272V132.272ZM112.772 147.761L102.609 134.772L99.6739 137.272V147.761H94.0217V107H99.6739V130.315L110.489 120.913H119.185L106.685 131.348L120 147.761H112.772ZM140.978 107L157.717 147.761H151.196L147.12 137.109H131.087L127.065 147.761H120.543L137.283 107H140.978ZM132.989 132.109H145.217L139.13 116.022L132.989 132.109ZM187.772 134.391C187.772 142.38 182.011 148.304 174.293 148.304C171.685 148.304 168.37 147.217 166.576 145.75V161.62H160.978V120.913H166.576V123.033C168.696 121.402 171.685 120.424 174.293 120.424C182.011 120.424 187.772 126.402 187.772 134.391V134.391ZM182.12 134.391C182.12 128.902 178.37 125.043 173.75 125.043C170.707 125.043 168.043 126.402 166.576 129.337C165.87 130.804 165.435 132.543 165.435 134.391C165.435 136.239 165.87 137.978 166.576 139.446C168.043 142.326 170.707 143.739 173.75 143.739C178.37 143.739 182.12 139.826 182.12 134.391V134.391ZM220 134.391C220 142.38 214.239 148.304 206.522 148.304C203.913 148.304 200.598 147.217 198.804 145.75V161.62H193.207V120.913H198.804V123.033C200.924 121.402 203.913 120.424 206.522 120.424C214.239 120.424 220 126.402 220 134.391V134.391ZM214.348 134.391C214.348 128.902 210.598 125.043 205.978 125.043C202.935 125.043 200.272 126.402 198.804 129.337C198.098 130.804 197.663 132.543 197.663 134.391C197.663 136.239 198.098 137.978 198.804 139.446C200.272 142.326 202.935 143.739 205.978 143.739C210.598 143.739 214.348 139.826 214.348 134.391V134.391Z" fill="#D72364"/>
</svg>
