<svg width="51" height="48" viewBox="0 0 51 48" fill="none" xmlns="http://www.w3.org/2000/svg">
<path d="M32.374 0L49.7019 0.557951L32.374 16.9763V0ZM31.1153 0.916645V17.8331H15.0069C20.5 12.3173 25.7676 6.58456 31.1153 0.916645ZM48.7774 3.20801L51 3.96517L42.9753 8.68736L48.7774 3.20801ZM5.31044 5.081H8.8311L17.0328 13.9676L13.2171 17.8331H5.31044C5.31101 13.5797 5.31044 9.33228 5.31044 5.081ZM4.05163 5.8581V9.54426H0L4.05163 5.8581ZM6.19554 19.1084H30.8203L23.956 37.6987L6.19554 19.1084ZM31.1153 21.9775V48L23.0906 43.6564C25.7663 36.4292 28.4383 29.2064 31.1153 21.9775V21.9775Z" fill="#448CBE"/>
</svg>
