<svg width="221" height="55" viewBox="0 0 221 55" fill="none" xmlns="http://www.w3.org/2000/svg">
<path d="M13.9131 13.8044C21.6305 13.8044 27.337 19.7827 27.337 27.7718C27.337 35.7609 21.6305 41.6848 13.9131 41.6848C11.3044 41.6848 8.31529 40.7066 6.19573 39.1305V41.1414H0.5979V0.380493H6.19573V16.4131C7.9892 14.9457 11.3044 13.8044 13.9131 13.8044ZM13.3696 37.1196C17.9892 37.1196 21.7392 33.2066 21.7392 27.7718C21.7392 22.2827 17.9892 18.424 13.3696 18.424C10.3262 18.424 7.66312 19.7827 6.19573 22.6631C5.43486 24.1848 5.00007 25.924 5.00007 27.7718C5.00007 29.6196 5.43486 31.3588 6.19573 32.8261C7.66312 35.7066 10.3262 37.1196 13.3696 37.1196ZM44.2392 13.7501C51.9566 13.7501 55.0544 18.424 55.0544 22.3914V41.1414H49.4566V38.2066C47.5001 40.8696 44.0218 41.6305 41.8479 41.6305C35.7066 41.6305 31.6849 38.0435 31.6849 33.2609C31.6849 26.5761 36.6849 24.1848 41.8479 24.1848H49.4566V22.3914C49.4566 20.7066 48.8044 18.3696 44.2392 18.3696C41.6849 18.3696 39.3479 19.7283 37.8262 21.8479L33.9675 18.3696C36.5218 15.5435 40.1631 13.7501 44.2392 13.7501ZM49.4566 32.7718V28.7501H42.6088C39.2936 28.7501 36.9566 30.4348 37.337 33.4783C37.6631 36.0327 39.7283 37.0653 42.6088 37.0653C47.7718 37.0653 49.4566 34.6196 49.4566 32.7718ZM86.6305 25.6522V41.1414H81.0327V26.1957C81.0327 20.7609 79.3479 18.3696 74.7283 18.3696C69.5109 18.3696 67.3914 22.0109 67.3914 26.7392V41.1414H61.7936V14.2935H67.3914V18.6414C68.1522 16.2501 71.5218 14.0761 74.7283 13.8588C82.0109 13.3153 86.6305 16.8479 86.6305 25.6522ZM113.37 41.1414L103.207 28.1522L100.272 30.6522V41.1414H94.6196V0.380493H100.272V23.6957L111.087 14.2935H119.783L107.283 24.7283L120.598 41.1414H113.37ZM141.576 0.380493L158.315 41.1414H151.794L147.717 30.4892H131.685L129.674 35.8153L127.663 41.1414H124.402H121.141L125.326 30.9511L129.511 20.7609L137.881 0.380493H141.576ZM133.587 25.4892H145.815L139.728 9.40223L133.587 25.4892ZM188.37 27.7718C188.37 35.7609 182.609 41.6848 174.891 41.6848C172.283 41.6848 168.967 40.5979 167.174 39.1305V55.0001H161.576V14.2935H167.174V16.4131C169.294 14.7827 172.283 13.8044 174.891 13.8044C182.609 13.8044 188.37 19.7827 188.37 27.7718ZM182.717 27.7718C182.717 22.2827 178.967 18.424 174.348 18.424C171.304 18.424 168.641 19.7827 167.174 22.7175C166.467 24.1848 166.033 25.924 166.033 27.7718C166.033 29.6196 166.467 31.3588 167.174 32.8261C168.641 35.7066 171.304 37.1196 174.348 37.1196C178.967 37.1196 182.717 33.2066 182.717 27.7718ZM220.598 27.7718C220.598 35.7609 214.837 41.6848 207.12 41.6848C204.511 41.6848 201.196 40.5979 199.402 39.1305V55.0001H193.804V14.2935H199.402V16.4131C201.522 14.7827 204.511 13.8044 207.12 13.8044C214.837 13.8044 220.598 19.7827 220.598 27.7718ZM214.946 27.7718C214.946 22.2827 211.196 18.424 206.576 18.424C203.533 18.424 200.87 19.7827 199.402 22.7175C198.696 24.1848 198.261 25.924 198.261 27.7718C198.261 29.6196 198.696 31.3588 199.402 32.8261C200.87 35.7066 203.533 37.1196 206.576 37.1196C211.196 37.1196 214.946 33.2066 214.946 27.7718Z" fill="#D72364"/>
</svg>
